<svg width="1424" height="754" viewBox="0 0 1424 754" fill="none" xmlns="http://www.w3.org/2000/svg">
<path fill-rule="evenodd" clip-rule="evenodd" d="M1469.55 246.899C1483.21 209.687 1487.35 143.68 1452.72 116.506C1404.39 78.585 1327.84 96.9956 1283.79 132.403C1250.68 159.012 1225.44 199.719 1184.24 209.355C1123.44 223.582 1068.63 161.988 1006.22 161.213C966.099 160.713 927.224 188.813 914.708 227.366C905.914 254.454 908.752 285.953 892.446 309.213C881.815 324.38 864.783 333.318 850.241 344.689C818.643 369.398 790.969 419.445 803.984 457.643C812.826 483.597 841.268 508.692 864.366 518.635C887.466 528.577 912.852 531.57 937.896 533.324C1077.67 543.111 1212.88 491.752 1333.69 409.836C1333.69 409.836 1433.17 347.354 1469.55 246.899Z" fill="url(#paint0_linear_308_29)"/>
<path d="M164.872 10.294C255.913 99.4489 1437.68 10.294 1437.68 10.294C1437.68 10.294 1496.9 870.465 1437.68 677.711C1378.46 484.957 485.283 921.766 164.872 677.711C-155.54 433.656 73.8305 -78.861 164.872 10.294Z" fill="#DEEBFF" fill-opacity="0.45"/>
<defs>
<linearGradient id="paint0_linear_308_29" x1="1018.38" y1="590.22" x2="1277.51" y2="32.4236" gradientUnits="userSpaceOnUse">
<stop stop-color="#98C5FF"/>
<stop offset="0.703125" stop-color="#00B6A1"/>
</linearGradient>
</defs>
</svg>