<svg width="648" height="360" viewBox="0 0 648 360" fill="none" xmlns="http://www.w3.org/2000/svg">
<path fill-rule="evenodd" clip-rule="evenodd" d="M88.1751 345.202C52.2893 334.152 0.334255 302.649 0.0980832 268.16C-0.232906 220.032 58.1599 184.155 110.386 176.275C149.632 170.356 194.886 176.341 226.106 156.895C272.184 128.2 257.863 64.0493 293.615 26.6868C316.599 2.66524 360.326 -5.90721 396.553 6.50975C422.007 15.234 443.998 33.117 470.952 35.4226C488.527 36.9266 505.153 31.4362 522.155 28.6713C559.1 22.6644 612.781 32.0152 633.876 59.3723C648.21 77.9592 650.489 107.714 644.505 126.509C638.519 145.306 625.985 161.882 612.721 177.618C538.688 265.443 421.415 319.113 289.589 348.535C289.589 348.535 184.764 375.323 88.1751 345.202Z" fill="url(#paint0_linear_268_177)"/>
<defs>
<linearGradient id="paint0_linear_268_177" x1="608.573" y1="254.555" x2="45.9046" y2="96.5126" gradientUnits="userSpaceOnUse">
<stop stop-color="#98C5FF"/>
<stop offset="0.703125" stop-color="#00B6A1"/>
</linearGradient>
</defs>
</svg>
