<svg width="19" height="18" viewBox="0 0 19 18" fill="none" xmlns="http://www.w3.org/2000/svg">
<path d="M0 2.09091C0 1.48484 0.212844 0.984836 0.638515 0.590909C1.06418 0.196964 1.61758 0 2.29865 0C2.96758 0 3.50878 0.193927 3.9223 0.581818C4.34797 0.981818 4.56082 1.50302 4.56082 2.14545C4.56082 2.72727 4.35407 3.21211 3.94055 3.6C3.51488 4 2.95541 4.2 2.26217 4.2H2.24392C1.575 4.2 1.03379 4 0.620271 3.6C0.206751 3.2 0 2.69696 0 2.09091ZM0.237163 18V5.85455H4.28717V18H0.237163ZM6.53109 18H10.5811V11.2182C10.5811 10.7939 10.6298 10.4667 10.727 10.2364C10.8973 9.82424 11.1558 9.47575 11.5024 9.19091C11.849 8.90605 12.2838 8.76364 12.8068 8.76364C14.1689 8.76364 14.85 9.67878 14.85 11.5091V18H18.9V11.0364C18.9 9.24242 18.4744 7.88182 17.623 6.95455C16.7716 6.02727 15.6467 5.56364 14.248 5.56364C12.6791 5.56364 11.4568 6.23636 10.5811 7.58182V7.61818H10.5629L10.5811 7.58182V5.85455H6.53109C6.55541 6.24242 6.56758 7.44847 6.56758 9.47273C6.56758 11.497 6.55541 14.3394 6.53109 18Z" fill="white"/>
</svg>
