<svg width="16" height="20" viewBox="0 0 16 20" fill="none" xmlns="http://www.w3.org/2000/svg">
<path fill-rule="evenodd" clip-rule="evenodd" d="M16 8.18182C16 14.5455 8 20 8 20C8 20 0 14.5455 0 8.18182C0 6.01187 0.842855 3.93079 2.34315 2.3964C3.84344 0.862011 5.87827 0 8 0C10.1217 0 12.1566 0.862011 13.6569 2.3964C15.1571 3.93079 16 6.01187 16 8.18182Z" fill="white"/>
<path d="M8.00016 10.9096C9.47292 10.9096 10.6668 9.68858 10.6668 8.18235C10.6668 6.67612 9.47292 5.45508 8.00016 5.45508C6.5274 5.45508 5.3335 6.67612 5.3335 8.18235C5.3335 9.68858 6.5274 10.9096 8.00016 10.9096Z" fill="black"/>
</svg>
