<svg width="299" height="275" viewBox="0 0 299 275" fill="none" xmlns="http://www.w3.org/2000/svg">
<g clip-path="url(#clip0_43_28)">
<circle cx="146.5" cy="145.5" r="57" stroke="#816BC1"/>
<g filter="url(#filter0_d_43_28)">
<path fill-rule="evenodd" clip-rule="evenodd" d="M146.763 23C130.194 23 116.763 36.4315 116.763 53V58.3532C116.763 62.3684 114.336 65.9478 110.767 67.7877C110.213 68.073 109.663 68.364 109.117 68.6606C105.543 70.5998 101.156 70.5645 97.825 68.2322L91.6513 63.9093C78.0792 54.406 59.3728 57.7044 49.8695 71.2766L46.428 76.1915C36.9247 89.7637 40.2231 108.47 53.7953 117.973L59.5991 122.037C62.9584 124.389 64.4874 128.547 63.8483 132.598C63.1337 137.127 62.7626 141.77 62.7626 146.5C62.7626 150.339 63.0071 154.12 63.4811 157.83C63.9862 161.782 62.4422 165.781 59.1788 168.066L55.0181 170.979C41.446 180.482 38.1476 199.189 47.6509 212.761L51.0924 217.676C60.5957 231.248 79.3021 234.546 92.8742 225.043L95.3023 223.343C98.7278 220.944 103.257 220.979 106.873 223.08C108.151 223.822 109.45 224.533 110.767 225.212C114.336 227.052 116.763 230.632 116.763 234.647V238C116.763 254.569 130.194 268 146.763 268H152.763C169.331 268 182.763 254.569 182.763 238V236.121C182.763 231.972 185.35 228.303 189.1 226.527C190.932 225.659 192.73 224.73 194.491 223.742C197.904 221.828 202.133 221.841 205.338 224.085C218.911 233.588 237.617 230.29 247.12 216.718L250.562 211.803C260.065 198.231 256.767 179.524 243.194 170.021L243.084 169.944C239.759 167.615 238.224 163.514 238.815 159.497C239.439 155.255 239.763 150.915 239.763 146.5C239.763 111.16 219.049 80.6588 189.1 66.4736C185.35 64.6974 182.763 61.0281 182.763 56.8787V53C182.763 36.4315 169.331 23 152.763 23H146.763Z" fill="#0056A1"/>
</g>
<g filter="url(#filter1_d_43_28)">
<mask id="path-3-outside-1_43_28" maskUnits="userSpaceOnUse" x="97" y="62.1816" width="163" height="137" fill="black">
<rect fill="white" x="97" y="62.1816" width="163" height="137"/>
<path fill-rule="evenodd" clip-rule="evenodd" d="M195.723 149.898C195.22 150.25 194.909 150.817 194.863 151.43C193 176.494 172.283 196.244 147 196.244C120.49 196.244 99 174.53 99 147.744C99 120.958 120.49 99.2443 147 99.2443C153.877 99.2443 160.416 100.706 166.33 103.338C166.988 103.63 167.752 103.569 168.341 103.156L215.667 70.0184C227.883 61.4649 244.542 64.5558 252.876 76.9221C261.21 89.2883 258.063 106.247 245.848 114.801L195.723 149.898Z"/>
</mask>
<path fill-rule="evenodd" clip-rule="evenodd" d="M195.723 149.898C195.22 150.25 194.909 150.817 194.863 151.43C193 176.494 172.283 196.244 147 196.244C120.49 196.244 99 174.53 99 147.744C99 120.958 120.49 99.2443 147 99.2443C153.877 99.2443 160.416 100.706 166.33 103.338C166.988 103.63 167.752 103.569 168.341 103.156L215.667 70.0184C227.883 61.4649 244.542 64.5558 252.876 76.9221C261.21 89.2883 258.063 106.247 245.848 114.801L195.723 149.898Z" fill="white"/>
<path d="M215.667 70.0184L216.814 71.6567L215.667 70.0184ZM252.876 76.9221L254.534 75.8043L252.876 76.9221ZM245.848 114.801L246.995 116.439L245.848 114.801ZM166.33 103.338L165.517 105.165L166.33 103.338ZM168.341 103.156L167.194 101.518L168.341 103.156ZM194.863 151.43L196.858 151.578L194.863 151.43ZM195.723 149.898L194.576 148.26L195.723 149.898ZM192.869 151.281C191.081 175.327 171.21 194.244 147 194.244V198.244C173.355 198.244 194.918 177.661 196.858 151.578L192.869 151.281ZM147 194.244C121.614 194.244 101 173.445 101 147.744H97C97 175.615 119.366 198.244 147 198.244V194.244ZM101 147.744C101 122.043 121.614 101.244 147 101.244V97.2443C119.366 97.2443 97 119.873 97 147.744H101ZM147 101.244C153.591 101.244 159.854 102.644 165.517 105.165L167.144 101.511C160.979 98.7669 154.163 97.2443 147 97.2443V101.244ZM169.488 104.795L216.814 71.6567L214.52 68.3801L167.194 101.518L169.488 104.795ZM216.814 71.6567C228.114 63.7448 243.508 66.6011 251.217 78.0398L254.534 75.8043C245.575 62.5105 227.652 59.1851 214.52 68.3801L216.814 71.6567ZM251.217 78.0398C258.942 89.5016 256.023 105.234 244.701 113.162L246.995 116.439C260.104 107.26 263.478 89.075 254.534 75.8043L251.217 78.0398ZM244.701 113.162L194.576 148.26L196.87 151.536L246.995 116.439L244.701 113.162ZM165.517 105.165C166.791 105.732 168.302 105.625 169.488 104.795L167.194 101.518C167.194 101.518 167.194 101.518 167.194 101.518C167.194 101.518 167.194 101.518 167.194 101.518C167.194 101.518 167.195 101.518 167.195 101.518C167.195 101.518 167.195 101.518 167.195 101.518C167.194 101.518 167.192 101.519 167.187 101.519C167.177 101.52 167.162 101.519 167.144 101.511L165.517 105.165ZM196.858 151.578C196.859 151.562 196.864 151.549 196.868 151.541C196.872 151.533 196.874 151.534 196.87 151.536L194.576 148.26C193.561 148.97 192.957 150.095 192.869 151.281L196.858 151.578Z" fill="#0056A1" mask="url(#path-3-outside-1_43_28)"/>
</g>
<path d="M146.787 154H105.213C105.213 158.728 106.086 164.409 108.197 168.777C110.308 173.144 113.401 177.113 117.302 180.456C121.202 183.799 125.832 186.45 130.927 188.26C136.023 190.069 141.484 191 147 191C152.516 191 157.977 190.069 163.073 188.26C168.168 186.45 172.798 183.799 176.698 180.456C180.599 177.113 183.692 173.144 185.803 168.777C187.914 164.409 189 159.728 189 155H188.954C188.234 162.818 179.128 169 168 169C159.58 169 152.17 164.888 148.75 159.5C147.798 158 146.966 155.799 146.787 154Z" fill="url(#paint0_linear_43_28)"/>
<path d="M147 157C147 168.598 137.598 178 126 178C114.402 178 105 168.598 105 157C105 145.402 114.402 136 126 136C137.598 136 147 145.402 147 157Z" fill="url(#paint1_linear_43_28)"/>
</g>
<defs>
<filter id="filter0_d_43_28" x="37" y="23" width="222.99" height="253" filterUnits="userSpaceOnUse" color-interpolation-filters="sRGB">
<feFlood flood-opacity="0" result="BackgroundImageFix"/>
<feColorMatrix in="SourceAlpha" type="matrix" values="0 0 0 0 0 0 0 0 0 0 0 0 0 0 0 0 0 0 127 0" result="hardAlpha"/>
<feOffset dy="4"/>
<feGaussianBlur stdDeviation="2"/>
<feComposite in2="hardAlpha" operator="out"/>
<feColorMatrix type="matrix" values="0 0 0 0 0 0 0 0 0 0 0 0 0 0 0 0 0 0 0.15 0"/>
<feBlend mode="normal" in2="BackgroundImageFix" result="effect1_dropShadow_43_28"/>
<feBlend mode="normal" in="SourceGraphic" in2="effect1_dropShadow_43_28" result="shape"/>
</filter>
<filter id="filter1_d_43_28" x="93" y="63.1816" width="170.536" height="143.062" filterUnits="userSpaceOnUse" color-interpolation-filters="sRGB">
<feFlood flood-opacity="0" result="BackgroundImageFix"/>
<feColorMatrix in="SourceAlpha" type="matrix" values="0 0 0 0 0 0 0 0 0 0 0 0 0 0 0 0 0 0 127 0" result="hardAlpha"/>
<feOffset dy="4"/>
<feGaussianBlur stdDeviation="2"/>
<feComposite in2="hardAlpha" operator="out"/>
<feColorMatrix type="matrix" values="0 0 0 0 0 0 0 0 0 0 0 0 0 0 0 0 0 0 0.15 0"/>
<feBlend mode="normal" in2="BackgroundImageFix" result="effect1_dropShadow_43_28"/>
<feBlend mode="normal" in="SourceGraphic" in2="effect1_dropShadow_43_28" result="shape"/>
</filter>
<linearGradient id="paint0_linear_43_28" x1="126" y1="136" x2="126" y2="178" gradientUnits="userSpaceOnUse">
<stop offset="0.296" stop-color="#00E2C7"/>
<stop offset="1" stop-color="#0061DF"/>
</linearGradient>
<linearGradient id="paint1_linear_43_28" x1="126" y1="136" x2="126" y2="178" gradientUnits="userSpaceOnUse">
<stop offset="0.296" stop-color="#00E2C7"/>
<stop offset="1" stop-color="#0061DF"/>
</linearGradient>
<clipPath id="clip0_43_28">
<rect width="299" height="275" fill="white"/>
</clipPath>
</defs>
</svg>
